<?xml version="1.0" encoding="utf-8"?>
<!-- Generator: Adobe Illustrator 19.1.0, SVG Export Plug-In . SVG Version: 6.00 Build 0)  -->
<svg version="1.1" id="Layer_1" xmlns="http://www.w3.org/2000/svg" xmlns:xlink="http://www.w3.org/1999/xlink" x="0px" y="0px"
	 viewBox="0 0 100 100" style="enable-background:new 0 0 100 100;" xml:space="preserve">
<style type="text/css">
	.st0{fill:#2AA8E0;}
	.st1{fill:#FFFFFF;}
</style>
<g>
	<rect class="st0" width="100" height="100"/>
	<path class="st1" d="M83.3,29.3c-2.5,1.1-5.1,1.8-7.9,2.2c2.8-1.7,5-4.4,6-7.6c-2.6,1.6-5.6,2.7-8.7,3.3c-2.5-2.7-6.1-4.3-10-4.3
		c-7.6,0-13.7,6.1-13.7,13.7c0,1.1,0.1,2.1,0.4,3.1c-11.4-0.6-21.4-6-28.2-14.3c-1.2,2-1.9,4.4-1.9,6.9c0,4.7,2.4,8.9,6.1,11.4
		c-2.2-0.1-4.3-0.7-6.2-1.7v0.2c0,6.6,4.7,12.2,11,13.4C29.2,55.9,28,56,26.7,56c-0.9,0-1.7-0.1-2.6-0.2c1.7,5.4,6.8,9.4,12.8,9.5
		c-4.7,3.7-10.6,5.9-17,5.9c-1.1,0-2.2-0.1-3.3-0.2c6.1,3.9,13.2,6.1,21,6.1c25.2,0,38.9-20.8,38.9-38.9c0-0.6,0-1.2,0-1.8
		C79.2,34.5,81.5,32.1,83.3,29.3z"/>
</g>
</svg>
