<?xml version="1.0" encoding="utf-8"?>
<!-- Generator: Adobe Illustrator 19.1.0, SVG Export Plug-In . SVG Version: 6.00 Build 0)  -->
<svg version="1.1" id="Layer_1" xmlns="http://www.w3.org/2000/svg" xmlns:xlink="http://www.w3.org/1999/xlink" x="0px" y="0px"
	 viewBox="0 0 100 100" style="enable-background:new 0 0 100 100;" xml:space="preserve">
<style type="text/css">
	.st0{fill:#CC3732;}
	.st1{fill:#FFFFFF;}
</style>
<g>
	<rect x="0" y="0" class="st0" width="100" height="100"/>
	<path class="st1" d="M48.4,15.7c0.6,0.4,1.3,1,2.1,1.7c0.7,0.8,1.5,1.7,2.2,2.9c0.7,1.1,1.3,2.3,1.8,3.8c0.4,1.5,0.7,3.2,0.7,5.1
		c-0.1,3.6-0.8,6.4-2.4,8.6c-0.7,1-1.5,2-2.4,2.9c-0.9,0.9-1.9,1.8-2.9,2.7c-0.6,0.6-1.1,1.3-1.6,2.1c-0.6,0.8-0.9,1.7-0.9,2.8
		c0,1,0.3,1.9,0.9,2.6c0.5,0.6,1,1.2,1.5,1.7l3.4,2.8c2.1,1.7,3.9,3.6,5.5,5.7c1.5,2.1,2.3,4.9,2.3,8.3c0,4.8-2.1,9.1-6.4,12.8
		c-4.4,3.9-10.8,5.8-19.1,6c-7-0.1-12.2-1.6-15.6-4.5c-3.5-2.7-5.2-6-5.2-9.7c0-1.8,0.6-3.9,1.7-6.2c1.1-2.3,3.1-4.2,6-6
		c3.2-1.8,6.6-3.1,10.2-3.7c3.5-0.5,6.4-0.8,8.8-0.9c-0.7-0.9-1.4-2-1.9-3c-0.7-1-1-2.3-1-3.8c0-0.9,0.1-1.6,0.4-2.2
		c0.2-0.6,0.4-1.2,0.6-1.7c-1.1,0.1-2.2,0.2-3.2,0.2c-5.3-0.1-9.3-1.7-12.1-5c-2.9-3-4.4-6.6-4.4-10.6c0-4.9,2.1-9.3,6.2-13.3
		c2.8-2.3,5.8-3.8,8.8-4.6c3-0.6,5.9-0.9,8.5-0.9h19.9l-6.2,3.6H48.4z M52.3,73c0-2.5-0.8-4.7-2.5-6.6c-1.7-1.8-4.5-4-8.2-6.6
		c-0.6-0.1-1.4-0.1-2.2-0.1c-0.5-0.1-1.8,0-3.9,0.2c-2.1,0.3-4.2,0.8-6.3,1.4c-0.5,0.2-1.2,0.5-2.1,0.9c-0.9,0.4-1.9,1-2.8,1.8
		c-0.9,0.8-1.7,1.8-2.3,3c-0.7,1.3-1.1,2.8-1.1,4.6c0,3.5,1.6,6.4,4.8,8.6c3,2.3,7.1,3.4,12.4,3.5c4.7-0.1,8.3-1.1,10.7-3.1
		C51,78.7,52.3,76.1,52.3,73z M38.4,43.8c2.6-0.1,4.8-1,6.6-2.8c0.8-1.3,1.4-2.6,1.6-3.9c0.1-1.3,0.2-2.4,0.2-3.4
		c0-3.9-1-7.9-3-11.9c-0.9-1.9-2.2-3.5-3.7-4.7c-1.6-1.1-3.4-1.7-5.4-1.8c-2.7,0.1-4.9,1.2-6.7,3.3c-1.5,2.2-2.2,4.7-2.2,7.4
		c0,3.6,1.1,7.3,3.2,11.2c1,1.8,2.3,3.4,4,4.6C34.4,43.2,36.3,43.8,38.4,43.8z"/>
	<polygon class="st1" points="87.7,23 77.2,23 77.2,12.5 72.2,12.5 72.2,23 61.7,23 61.7,28 72.2,28 72.2,38.5 77.2,38.5 77.2,28 
		87.7,28 	"/>
</g>
</svg>
