<?xml version="1.0" encoding="utf-8"?>
<!-- Generator: Adobe Illustrator 19.1.0, SVG Export Plug-In . SVG Version: 6.00 Build 0)  -->
<svg version="1.1" id="Layer_1" xmlns="http://www.w3.org/2000/svg" xmlns:xlink="http://www.w3.org/1999/xlink" x="0px" y="0px"
	 viewBox="0 0 589.3 148.7" style="enable-background:new 0 0 589.3 148.7;" xml:space="preserve">
<style type="text/css">
	.st0{fill:url(#SVGID_1_);stroke:url(#SVGID_2_);stroke-width:3;stroke-miterlimit:10;}
	.st1{fill:url(#SVGID_3_);stroke:url(#SVGID_4_);stroke-width:3;stroke-miterlimit:10;}
	.st2{fill:url(#SVGID_5_);stroke:url(#SVGID_6_);stroke-width:3;stroke-miterlimit:10;}
	.st3{fill:url(#SVGID_7_);stroke:url(#SVGID_8_);stroke-width:3;stroke-miterlimit:10;}
	.st4{fill:url(#SVGID_9_);stroke:url(#SVGID_10_);stroke-width:3;stroke-miterlimit:10;}
</style>
<g>
	<linearGradient id="SVGID_1_" gradientUnits="userSpaceOnUse" x1="5.6854" y1="99.7992" x2="143.1788" y2="99.7992">
		<stop  offset="0" style="stop-color:#24336A"/>
		<stop  offset="0.5" style="stop-color:#32488F"/>
		<stop  offset="1" style="stop-color:#24336A"/>
	</linearGradient>
	<linearGradient id="SVGID_2_" gradientUnits="userSpaceOnUse" x1="0.7323" y1="100.0186" x2="144.8745" y2="100.0186">
		<stop  offset="0" style="stop-color:#24336A"/>
		<stop  offset="1" style="stop-color:#24336A"/>
	</linearGradient>
	<polygon class="st0" points="5.7,78.1 55.3,101.6 20.3,143 143.2,122 133.6,56.6 	"/>
	<linearGradient id="SVGID_3_" gradientUnits="userSpaceOnUse" x1="446.1733" y1="99.7992" x2="583.6667" y2="99.7992">
		<stop  offset="0" style="stop-color:#24336A"/>
		<stop  offset="0.5" style="stop-color:#32488F"/>
		<stop  offset="1" style="stop-color:#24336A"/>
	</linearGradient>
	<linearGradient id="SVGID_4_" gradientUnits="userSpaceOnUse" x1="444.4776" y1="100.0186" x2="588.6198" y2="100.0186">
		<stop  offset="0" style="stop-color:#24336A"/>
		<stop  offset="1" style="stop-color:#24336A"/>
	</linearGradient>
	<polygon class="st1" points="583.7,78.1 534,101.6 569,143 446.2,122 455.7,56.6 	"/>
	<linearGradient id="SVGID_5_" gradientUnits="userSpaceOnUse" x1="101.1669" y1="112.132" x2="144.4518" y2="112.132">
		<stop  offset="0" style="stop-color:#24336A"/>
		<stop  offset="0.5" style="stop-color:#172252"/>
		<stop  offset="1" style="stop-color:#24336A"/>
	</linearGradient>
	<linearGradient id="SVGID_6_" gradientUnits="userSpaceOnUse" x1="93.6443" y1="112.246" x2="146.2595" y2="112.246">
		<stop  offset="0" style="stop-color:#24336A"/>
		<stop  offset="1" style="stop-color:#24336A"/>
	</linearGradient>
	<polygon class="st2" points="101.2,110.5 141.9,103.5 144.5,120.7 	"/>
	<linearGradient id="SVGID_7_" gradientUnits="userSpaceOnUse" x1="446.3981" y1="112.132" x2="489.683" y2="112.132">
		<stop  offset="0" style="stop-color:#24336A"/>
		<stop  offset="0.5" style="stop-color:#172252"/>
		<stop  offset="1" style="stop-color:#24336A"/>
	</linearGradient>
	<linearGradient id="SVGID_8_" gradientUnits="userSpaceOnUse" x1="444.5904" y1="112.246" x2="497.2056" y2="112.246">
		<stop  offset="0" style="stop-color:#24336A"/>
		<stop  offset="1" style="stop-color:#24336A"/>
	</linearGradient>
	<polygon class="st3" points="489.7,110.5 448.9,103.5 446.4,120.7 	"/>
	<linearGradient id="SVGID_9_" gradientUnits="userSpaceOnUse" x1="82.7071" y1="57.8671" x2="509.1911" y2="57.8671">
		<stop  offset="0" style="stop-color:#24336A"/>
		<stop  offset="0.5" style="stop-color:#32488F"/>
		<stop  offset="1" style="stop-color:#24336A"/>
	</linearGradient>
	<linearGradient id="SVGID_10_" gradientUnits="userSpaceOnUse" x1="80.9998" y1="57.9763" x2="510.8974" y2="57.9763">
		<stop  offset="0" style="stop-color:#24336A"/>
		<stop  offset="1" style="stop-color:#24336A"/>
	</linearGradient>
	<path class="st4" d="M496.5,109.9c-129.2-21-278.1-19.5-401,0c0,0,0,0-12.7-83.4c168.5-27.2,257.8-28,426.5,0
		C496.5,109.9,500.3,91.4,496.5,109.9z"/>
</g>
</svg>
